<?xml version="1.0" encoding="UTF-8"?>
<svg id="Layer_1" data-name="Layer 1" xmlns="http://www.w3.org/2000/svg" viewBox="0 0 31.06 31.06">
  <defs>
    <style>
      .cls-1 {
        fill: #fff;
      }
    </style>
  </defs>
  <path class="cls-1" d="m.81,19.08c0-.74,0-1.47,0-2.2,0-.23-.07-.38-.28-.5-.69-.38-.7-1.32-.02-1.7.26-.14.3-.31.3-.57,0-1.41,0-2.82,0-4.21v-.3c0-.14.02-.29.19-.31.18-.02.22.13.24.28,0,.06.02.13.02.18-.02.25.1.23.27.15.03-.02.07-.03.1-.05,1.6-.8,3.19-1.6,4.79-2.4.89-.45,1.73-.27,2.37.53.94,1.17,1.04,3.21.22,4.54-.37.6-.89.98-1.61,1.11-.23.04-.43,0-.64-.1-1.71-.86-3.41-1.72-5.13-2.58-.34-.18-.37-.16-.37.23v3.02c0,.23.03.42.26.52.07.03.14.08.17.14.18.49.55.38.92.33,2.95-.39,5.9-.79,8.85-1.18.37-.05.74-.11,1.1-.14.24-.03.37-.12.33-.38,0-.05,0-.1,0-.15.03-.17.02-.4.25-.39.25,0,.21.24.21.41v4.44c0,.14-.03.29-.2.31-.18,0-.2-.14-.24-.28-.07-.19.12-.46-.13-.58-.17-.08-.38-.08-.59-.1-2.93-.39-5.88-.78-8.81-1.17-.41-.05-.81-.1-1.22-.16-.15-.03-.26,0-.33.16-.04.09-.09.2-.18.23-.44.21-.41.59-.4.98,0,.9,0,1.79,0,2.69,0,.39.03.4.38.23,1.62-.81,3.24-1.63,4.86-2.44.73-.37,1.4-.27,2.01.28.62.57.91,1.29,1,2.1.13,1.07-.03,2.09-.69,2.97-.25.34-.59.58-.97.73-.42.17-.81.18-1.25-.05-1.63-.85-3.29-1.65-4.92-2.48-.26-.13-.44-.19-.43.21,0,.15-.04.33-.23.32-.23,0-.21-.21-.21-.37.02-.75.02-1.53.02-2.3Zm.78-8.71c.14.09.21.14.28.18,1.52.76,3.04,1.52,4.56,2.29.38.18.41.17.41-.27v-4.4c0-.4-.02-.42-.39-.23-1.15.57-2.28,1.15-3.43,1.72-.46.22-.91.44-1.43.71Zm.06,10.3c.06.04.1.08.14.09,1.57.79,3.15,1.58,4.72,2.37.29.15.33.03.33-.23,0-1.47,0-2.96,0-4.43,0-.44-.03-.46-.44-.25-1.49.75-2.97,1.49-4.46,2.24-.11.05-.23.08-.3.21Z"/>
  <path class="cls-1" d="m11.99.81c.74,0,1.46,0,2.2,0,.23,0,.38-.07.5-.28.38-.69,1.32-.7,1.7-.02.14.26.31.31.57.3,1.4,0,2.8,0,4.21,0h.3c.14,0,.29.02.31.19.02.18-.13.22-.28.24-.06,0-.13.02-.18.02-.25-.02-.23.1-.15.27.02.03.03.07.05.1.8,1.6,1.6,3.2,2.4,4.81.45.9.27,1.73-.53,2.37-1.17.94-3.2,1.04-4.53.22-.6-.37-.98-.9-1.1-1.61-.04-.23,0-.44.1-.65.86-1.71,1.71-3.42,2.58-5.14.18-.35.16-.37-.23-.37h-3.02c-.23,0-.42.03-.52.26-.03.07-.08.14-.14.17-.48.18-.38.55-.33.92.39,2.96.79,5.92,1.17,8.87.05.37.11.74.14,1.11.03.24.12.37.38.33.05,0,.1,0,.15,0,.17.03.4.02.39.25,0,.25-.24.2-.41.2h-4.43c-.14,0-.29-.03-.31-.2,0-.18.14-.2.28-.24.19-.07.46.12.58-.13.08-.17.08-.39.1-.58.39-2.94.78-5.89,1.17-8.83.05-.4.1-.81.16-1.22.03-.15,0-.26-.16-.34-.08-.04-.2-.09-.23-.18-.21-.44-.59-.41-.98-.4-.89,0-1.79,0-2.68,0-.38,0-.4.03-.23.38.81,1.63,1.62,3.24,2.43,4.87.36.73.27,1.41-.28,2.01-.57.62-1.29.9-2.1,1.01-1.07.13-2.08-.03-2.97-.7-.33-.25-.58-.59-.73-.97-.17-.43-.18-.81.05-1.25.84-1.63,1.65-3.29,2.47-4.94.13-.26.19-.44-.21-.43-.15,0-.33-.04-.32-.23,0-.23.21-.21.37-.22.76.03,1.54.03,2.3.03Zm8.7.78c-.08.14-.14.21-.18.28-.76,1.53-1.52,3.04-2.28,4.57-.18.38-.17.41.27.41h4.39c.4,0,.42-.02.23-.39-.57-1.15-1.15-2.29-1.71-3.44-.23-.45-.45-.9-.71-1.43Zm-10.28.06c-.04.06-.08.1-.09.14-.79,1.58-1.57,3.16-2.37,4.73-.15.29-.03.34.23.34,1.47,0,2.95,0,4.42,0,.44,0,.46-.03.25-.44-.74-1.49-1.49-2.97-2.23-4.47-.04-.11-.07-.22-.21-.3Z"/>
  <path class="cls-1" d="m30.25,11.99c0,.74,0,1.47,0,2.2,0,.23.07.38.28.5.69.38.7,1.32.02,1.7-.26.14-.31.31-.3.57,0,1.41,0,2.81,0,4.21v.3c0,.14-.02.29-.19.31-.18.02-.22-.13-.24-.28,0-.06-.02-.13-.02-.18.02-.25-.1-.23-.27-.15-.03.02-.07.03-.1.05-1.6.8-3.19,1.6-4.79,2.4-.89.45-1.73.27-2.37-.53-.94-1.17-1.04-3.21-.22-4.54.37-.6.89-.98,1.61-1.11.23-.04.43,0,.64.1,1.71.86,3.41,1.72,5.13,2.58.35.18.37.16.37-.23v-3.02c0-.23-.03-.42-.26-.52-.07-.03-.14-.08-.17-.14-.18-.49-.55-.38-.92-.33-2.95.39-5.9.79-8.85,1.17-.37.05-.74.11-1.1.14-.24.03-.37.12-.33.38,0,.05,0,.1,0,.15-.03.17-.02.4-.25.39-.25,0-.21-.24-.21-.41v-4.43c0-.14.03-.29.2-.31.18,0,.2.14.24.28.07.19-.12.46.13.58.17.08.38.08.59.1,2.93.39,5.88.78,8.81,1.16.4.05.81.1,1.22.16.15.03.26,0,.33-.16.04-.09.09-.2.18-.23.44-.21.41-.59.4-.98,0-.9,0-1.79,0-2.69,0-.39-.03-.4-.38-.23-1.62.81-3.24,1.63-4.86,2.44-.73.37-1.4.27-2.01-.28-.62-.57-.9-1.29-1-2.1-.13-1.07.03-2.09.69-2.97.25-.34.59-.58.97-.73.42-.17.81-.18,1.25.05,1.63.85,3.29,1.65,4.92,2.48.26.13.44.19.43-.22,0-.15.04-.33.23-.32.23,0,.21.21.21.37-.02.77-.03,1.54-.03,2.31Zm-.77,8.71c-.14-.09-.21-.14-.28-.18-1.52-.76-3.04-1.53-4.56-2.29-.38-.18-.41-.17-.41.27v4.4c0,.41.02.42.39.23,1.15-.57,2.28-1.14,3.43-1.72.45-.22.9-.45,1.43-.71Zm-.06-10.31c-.06-.04-.1-.08-.14-.09-1.57-.79-3.15-1.58-4.72-2.37-.29-.15-.33-.03-.33.23,0,1.47,0,2.96,0,4.43,0,.44.03.46.44.25,1.49-.75,2.97-1.49,4.46-2.24.1-.04.22-.07.3-.21Z"/>
  <path class="cls-1" d="m19.07,30.25c-.74,0-1.46,0-2.2,0-.23,0-.38.07-.5.28-.38.69-1.32.7-1.7.02-.14-.26-.31-.3-.57-.3-1.4,0-2.8,0-4.21,0h-.3c-.14,0-.29-.02-.31-.2-.02-.18.13-.22.28-.24.06,0,.13-.02.18-.02.25.02.23-.1.15-.27-.02-.03-.03-.07-.05-.1-.8-1.6-1.6-3.2-2.4-4.81-.45-.9-.27-1.73.53-2.37,1.17-.94,3.2-1.04,4.53-.22.6.37.98.9,1.1,1.61.04.23,0,.44-.1.65-.86,1.71-1.71,3.42-2.58,5.14-.18.34-.16.37.23.37h3.02c.23,0,.42-.03.52-.26.03-.07.08-.14.14-.17.48-.18.38-.55.33-.92-.39-2.96-.79-5.92-1.17-8.87-.05-.37-.11-.74-.14-1.11-.03-.24-.12-.37-.38-.33-.05,0-.1,0-.15,0-.17-.03-.4-.02-.39-.25,0-.25.24-.2.41-.2h4.43c.14,0,.29.03.31.2,0,.18-.14.2-.28.24-.19.07-.46-.12-.58.13-.08.17-.08.39-.1.59-.39,2.94-.78,5.89-1.17,8.83-.05.41-.1.81-.16,1.22-.03.15,0,.26.16.34.08.04.2.09.23.18.21.44.59.41.98.4.89,0,1.79,0,2.68,0,.38,0,.4-.03.23-.38-.81-1.63-1.62-3.24-2.43-4.87-.36-.73-.27-1.41.28-2.01.57-.62,1.29-.91,2.1-1.01,1.07-.13,2.08.03,2.97.7.33.25.57.59.73.97.17.42.18.81-.05,1.25-.84,1.63-1.65,3.29-2.47,4.94-.13.26-.19.44.21.43.15,0,.33.04.32.23,0,.23-.21.21-.37.21-.76,0-1.53,0-2.3,0Zm-8.7-.77c.08-.14.13-.21.18-.28.76-1.53,1.52-3.04,2.28-4.57.18-.38.17-.41-.27-.41h-4.39c-.4,0-.42.02-.23.39.57,1.15,1.14,2.29,1.71,3.44.23.45.45.9.71,1.43Zm10.28-.06c.04-.06.08-.1.09-.14.79-1.58,1.57-3.16,2.37-4.73.15-.29.03-.34-.23-.34-1.47,0-2.95,0-4.42,0-.44,0-.46.03-.25.44.74,1.49,1.49,2.97,2.23,4.47.04.1.08.22.21.3Z"/>
</svg>