<svg width="38" height="38" viewBox="0 0 38 38" fill="none" xmlns="http://www.w3.org/2000/svg">
<path d="M0.987164 23.3361C0.987164 22.4341 0.976935 21.5422 0.987164 20.6402C0.987164 20.3531 0.905337 20.1789 0.63939 20.0251C-0.199366 19.5638 -0.219825 18.4055 0.618932 17.9442C0.936022 17.7699 0.987164 17.5649 0.987164 17.2471C0.976935 15.525 0.987164 13.8029 0.987164 12.091C0.987164 11.968 0.987164 11.845 0.987164 11.7219C0.987164 11.5477 1.00762 11.3632 1.22242 11.3427C1.43723 11.3222 1.48837 11.5067 1.51906 11.6809C1.52929 11.7527 1.53952 11.8347 1.53952 11.9065C1.51906 12.214 1.66226 12.1935 1.86684 12.091C1.90775 12.0705 1.94866 12.05 1.98958 12.0295C3.94327 11.0454 5.89696 10.0716 7.85065 9.08748C8.94513 8.53394 9.968 8.75945 10.7454 9.73328C11.891 11.1684 12.0137 13.6594 11.0113 15.2892C10.5613 16.0273 9.91685 16.4886 9.04741 16.6423C8.761 16.6936 8.51552 16.6526 8.2598 16.5193C6.17314 15.4635 4.08647 14.4179 1.98958 13.3621C1.5702 13.1468 1.53952 13.1673 1.53952 13.6491C1.53952 14.8792 1.53952 16.1196 1.53952 17.3497C1.53952 17.6264 1.5702 17.8622 1.85661 17.9852C1.93844 18.0262 2.03049 18.0877 2.06118 18.1595C2.27598 18.754 2.73628 18.6208 3.18634 18.5592C6.79709 18.0775 10.4078 17.5957 14.0186 17.1139C14.4686 17.0524 14.9187 16.9806 15.3688 16.9396C15.6654 16.9089 15.8188 16.7961 15.7677 16.4783C15.7575 16.4168 15.7575 16.3553 15.7677 16.2938C15.7984 16.0888 15.7881 15.8018 16.0746 15.812C16.3814 15.8223 16.3303 16.1093 16.3303 16.3143C16.3303 18.0775 16.3303 19.8406 16.3303 21.614C16.3303 21.6653 16.3303 21.7063 16.3303 21.7473C16.32 21.9215 16.2996 22.106 16.0848 22.1265C15.87 22.1368 15.8393 21.9523 15.7881 21.7883C15.7063 21.5525 15.9313 21.2245 15.6347 21.081C15.4301 20.9784 15.1642 20.9887 14.9187 20.9579C11.3284 20.4762 7.7279 20.0046 4.13761 19.5228C3.63641 19.4613 3.14543 19.3998 2.64422 19.3281C2.4601 19.2973 2.32713 19.3383 2.23507 19.5228C2.18393 19.6356 2.12256 19.7688 2.02027 19.8099C1.47815 20.0661 1.51906 20.5377 1.52929 21.0092C1.53951 22.106 1.52929 23.2029 1.52929 24.2997C1.52929 24.7713 1.55997 24.7918 1.98958 24.5765C3.97395 23.5822 5.9481 22.5878 7.93248 21.5935C8.82238 21.1425 9.65091 21.2655 10.3874 21.942C11.1443 22.6391 11.5023 23.5207 11.6148 24.515C11.7683 25.8271 11.5739 27.0674 10.7658 28.154C10.459 28.5641 10.0498 28.8613 9.5793 29.0459C9.06787 29.2509 8.58712 29.2611 8.05523 28.9843C6.06062 27.949 4.03533 26.9649 2.0305 25.9501C1.71341 25.7861 1.48838 25.7143 1.50883 26.2064C1.51906 26.3909 1.45768 26.6062 1.22242 26.5959C0.946247 26.5857 0.966705 26.3396 0.966705 26.1449C0.987162 25.2223 0.987164 24.2792 0.987164 23.3361ZM1.93843 12.6855C2.11232 12.7983 2.19416 12.8598 2.28621 12.9008C4.14784 13.8336 5.99925 14.7664 7.86088 15.6993C8.32117 15.9248 8.36209 15.9043 8.36209 15.3712C8.36209 13.5773 8.36209 11.7834 8.36209 9.98955C8.36209 9.49751 8.34163 9.47701 7.88134 9.71278C6.48 10.4098 5.08889 11.1171 3.68755 11.8142C3.12497 12.0807 2.57262 12.3575 1.93843 12.6855ZM2.01004 25.2838C2.08164 25.3351 2.13278 25.3761 2.18393 25.3966C4.10693 26.3601 6.04016 27.3237 7.96316 28.2975C8.32117 28.4821 8.37231 28.3385 8.37231 28.0208C8.36208 26.2166 8.37231 24.4022 8.37231 22.5981C8.37231 22.0548 8.3314 22.0343 7.83019 22.2906C6.00948 23.2029 4.19899 24.1152 2.37828 25.0275C2.2453 25.089 2.1021 25.1198 2.01004 25.2838Z" fill="white"/>
<path d="M14.6732 0.989299C15.5733 0.989299 16.4632 0.979048 17.3633 0.989299C17.6497 0.989299 17.8236 0.907292 17.977 0.640771C18.4373 -0.199798 19.5932 -0.220299 20.0535 0.620269C20.2274 0.938045 20.4319 0.99955 20.749 0.989299C22.4675 0.979048 24.1757 0.989299 25.8941 0.989299C26.0168 0.989299 26.1396 0.989299 26.2623 0.989299C26.4362 0.989299 26.6203 1.0098 26.6408 1.22507C26.6612 1.44034 26.4771 1.49159 26.3032 1.52234C26.2316 1.53259 26.1498 1.54284 26.0782 1.54284C25.7713 1.52234 25.7918 1.66585 25.8941 1.87087C25.9145 1.91187 25.935 1.95288 25.9555 1.99388C26.9374 3.95179 27.9091 5.9097 28.8911 7.87786C29.4435 8.9747 29.2184 9.99978 28.2467 10.7788C26.8147 11.9269 24.3291 12.0499 22.7027 11.0454C21.9662 10.5943 21.506 9.94853 21.3525 9.07721C21.3014 8.79018 21.3525 8.54416 21.4753 8.28789C22.5288 6.19672 23.5722 4.10555 24.6257 2.00413C24.8405 1.5736 24.8201 1.5531 24.3393 1.5531C23.1119 1.5531 21.8844 1.5531 20.6467 1.5531C20.3706 1.5531 20.1353 1.58385 20.0126 1.87087C19.9716 1.95288 19.9103 2.04514 19.8387 2.07589C19.2454 2.29116 19.3784 2.75244 19.4397 3.20348C19.9205 6.82202 20.4013 10.4406 20.8718 14.0489C20.9331 14.4999 21.0047 14.9509 21.0457 15.402C21.0763 15.6992 21.1889 15.853 21.506 15.8018C21.5673 15.7915 21.6287 15.7915 21.6901 15.8018C21.8946 15.8325 22.1811 15.8223 22.1708 16.1093C22.1606 16.4168 21.8742 16.3553 21.6696 16.3553C19.9103 16.3553 18.1509 16.3553 16.3814 16.3553C16.3302 16.3553 16.2893 16.3553 16.2484 16.3553C16.0745 16.345 15.8904 16.3245 15.8699 16.1093C15.8597 15.894 16.0438 15.8633 16.2075 15.812C16.4427 15.73 16.77 15.9555 16.9132 15.6582C17.0155 15.4532 17.0053 15.1867 17.036 14.9509C17.5167 11.3529 17.9873 7.7446 18.468 4.14656C18.5294 3.65452 18.5908 3.15223 18.6624 2.64994C18.693 2.46542 18.6521 2.33216 18.468 2.2399C18.3657 2.18865 18.2225 2.12714 18.1816 2.02463C17.9259 1.48134 17.4554 1.52234 16.9849 1.53259C15.8904 1.54284 14.7959 1.53259 13.7014 1.53259C13.2309 1.53259 13.2104 1.56335 13.4253 1.99388C14.4174 3.98254 15.4096 5.96095 16.4018 7.94962C16.8416 8.84144 16.7291 9.67176 16.054 10.4098C15.3585 11.1684 14.4788 11.5169 13.4866 11.6399C12.1773 11.7937 10.9397 11.5989 9.85542 10.7891C9.44627 10.4816 9.14964 10.0715 8.96552 9.6C8.76095 9.07721 8.75072 8.60567 9.0269 8.07263C10.06 6.07371 11.042 4.04405 12.0546 2.03488C12.2183 1.71711 12.2899 1.49159 11.7989 1.51209C11.6148 1.52234 11.4 1.46084 11.4102 1.22507C11.4204 0.948296 11.6659 0.968798 11.8603 0.958547C12.7911 0.9893 13.7423 0.989299 14.6732 0.989299ZM25.311 1.94263C25.2088 2.11689 25.1372 2.1989 25.0962 2.29116C24.1654 4.15681 23.2346 6.01221 22.3038 7.87786C22.0788 8.33915 22.0992 8.38015 22.6311 8.38015C24.4211 8.38015 26.2112 8.38015 28.0012 8.38015C28.4922 8.38015 28.5126 8.35965 28.2774 7.89836C27.5818 6.494 26.876 5.09988 26.1805 3.69552C25.9043 3.14197 25.6281 2.58843 25.311 1.94263ZM12.7297 2.01438C12.6786 2.08614 12.6376 2.13739 12.6172 2.18865C11.6557 4.1158 10.6942 6.05321 9.72245 7.98037C9.53833 8.33915 9.68154 8.3904 9.99863 8.3904C11.7989 8.38015 13.6094 8.3904 15.4096 8.3904C15.9517 8.3904 15.9722 8.3494 15.7165 7.84711C14.8061 6.02246 13.8958 4.20806 12.9854 2.38341C12.9343 2.25015 12.9036 2.11689 12.7297 2.01438Z" fill="white"/>
<path d="M37.0129 14.6741C37.0129 15.5762 37.0231 16.468 37.0129 17.3701C37.0129 17.6571 37.0947 17.8314 37.3607 17.9852C38.1994 18.4464 38.2199 19.6048 37.3811 20.0661C37.064 20.2403 37.0027 20.4454 37.0129 20.7631C37.0231 22.4853 37.0129 24.1972 37.0129 25.9193C37.0129 26.0423 37.0129 26.1653 37.0129 26.2883C37.0129 26.4626 36.9924 26.6471 36.7776 26.6676C36.5628 26.6881 36.5117 26.5036 36.481 26.3293C36.4708 26.2576 36.4605 26.1756 36.4605 26.1038C36.481 25.7963 36.3378 25.8168 36.1332 25.9193C36.0923 25.9398 36.0514 25.9603 36.0105 25.9808C34.0568 26.9649 32.1031 27.9387 30.1494 28.9228C29.0549 29.4763 28.032 29.2508 27.2547 28.277C26.109 26.8419 25.9863 24.3509 26.9887 22.721C27.4388 21.983 28.0832 21.5217 28.9526 21.3679C29.239 21.3167 29.4845 21.3577 29.7403 21.4909C31.8269 22.5468 33.9136 23.5924 36.0105 24.6482C36.4401 24.8635 36.4605 24.843 36.4605 24.3612C36.4605 23.1311 36.4605 21.901 36.4605 20.6606C36.4605 20.3839 36.4298 20.1481 36.1434 20.0251C36.0616 19.9943 35.9695 19.9226 35.9389 19.8508C35.7241 19.2563 35.2638 19.3895 34.8137 19.451C31.203 19.9328 27.5922 20.4146 23.9917 20.8861C23.5416 20.9476 23.0916 21.0194 22.6415 21.0604C22.3449 21.0912 22.1914 21.2039 22.2426 21.5217C22.2528 21.5832 22.2528 21.6447 22.2426 21.7062C22.2119 21.9112 22.2221 22.1982 21.9357 22.188C21.6289 22.1777 21.68 21.8907 21.68 21.6857C21.68 19.9226 21.68 18.1594 21.68 16.3963C21.68 16.3553 21.68 16.304 21.68 16.263C21.6902 16.0888 21.7107 15.9042 21.9255 15.8837C22.1403 15.8735 22.171 16.058 22.2221 16.222C22.304 16.4578 22.0789 16.7858 22.3756 16.9293C22.5801 17.0318 22.8461 17.0216 23.0916 17.0523C26.6819 17.5341 30.2824 18.0057 33.8727 18.4772C34.3636 18.5387 34.8648 18.6002 35.3661 18.672C35.5502 18.7027 35.6831 18.6617 35.7752 18.4772C35.8263 18.3644 35.8877 18.2312 35.99 18.1902C36.5321 17.9339 36.4912 17.4624 36.481 16.9908C36.4708 15.894 36.481 14.7971 36.481 13.7003C36.481 13.2288 36.4503 13.2083 36.0207 13.4235C34.0363 14.4179 32.0622 15.4122 30.0778 16.4065C29.1879 16.8576 28.3594 16.7346 27.6229 16.058C26.866 15.3609 26.5182 14.4794 26.3955 13.485C26.242 12.1729 26.4364 10.9326 27.2444 9.846C27.5513 9.43596 27.9604 9.13869 28.431 8.95417C28.9424 8.74916 29.4232 8.7389 29.9551 9.01568C31.9497 10.051 33.9749 11.0351 35.9798 12.0499C36.2969 12.2139 36.5219 12.2857 36.5014 11.7834C36.4912 11.5989 36.5526 11.3836 36.7878 11.3939C37.064 11.4041 37.0436 11.6501 37.0436 11.8449C37.0231 12.788 37.0129 13.7311 37.0129 14.6741ZM36.0718 25.3248C35.8979 25.212 35.8161 25.1505 35.7241 25.1095C33.8624 24.1767 32.011 23.2438 30.1494 22.311C29.6891 22.0855 29.6482 22.106 29.6482 22.639C29.6482 24.4329 29.6482 26.2268 29.6482 28.0207C29.6482 28.523 29.6686 28.5333 30.1289 28.2975C31.5303 27.6004 32.9214 26.9034 34.3227 26.1961C34.8751 25.9296 35.4274 25.6425 36.0718 25.3248ZM36.0002 12.7162C35.9286 12.665 35.8775 12.624 35.8263 12.6035C33.9033 11.6399 31.9701 10.6763 30.0471 9.70248C29.6891 9.51797 29.638 9.66148 29.638 9.97926C29.6482 11.7834 29.638 13.5978 29.638 15.4019C29.638 15.9452 29.6789 15.9657 30.1801 15.7095C32.0008 14.7971 33.8113 13.8848 35.632 12.9725C35.7547 12.9212 35.8979 12.8905 36.0002 12.7162Z" fill="white"/>
<path d="M23.3268 37.0107C22.4266 37.0107 21.5367 37.0209 20.6366 37.0107C20.3502 37.0107 20.1763 37.0927 20.0229 37.3592C19.5626 38.1998 18.4067 38.2203 17.9465 37.3797C17.7726 37.0619 17.568 37.0107 17.2509 37.0107C15.5325 37.0209 13.8243 37.0107 12.1059 37.0107C11.9831 37.0107 11.8604 37.0107 11.7376 37.0107C11.5637 37.0107 11.3796 36.9902 11.3592 36.7647C11.3387 36.5494 11.5228 36.4982 11.6967 36.4674C11.7683 36.4571 11.8501 36.4469 11.9217 36.4469C12.2286 36.4674 12.2081 36.3239 12.1059 36.1189C12.0854 36.0779 12.0649 36.0369 12.0445 35.9959C11.0625 34.038 10.0908 32.08 9.10883 30.1119C8.55648 29.015 8.78151 27.99 9.75324 27.2109C11.1853 26.0628 13.6708 25.9398 15.2972 26.9444C16.0337 27.3954 16.494 28.0412 16.6474 28.9125C16.6986 29.1996 16.6474 29.4456 16.5247 29.7018C15.4711 31.793 14.4278 33.8842 13.3742 35.9856C13.1594 36.4059 13.1799 36.4366 13.6606 36.4366C14.8881 36.4366 16.1155 36.4366 17.3532 36.4366C17.6294 36.4366 17.8646 36.4059 17.9874 36.1189C18.0283 36.0369 18.0897 35.9446 18.1613 35.9139C18.7545 35.6986 18.6216 35.2373 18.5602 34.7863C18.0794 31.1677 17.5987 27.5492 17.1282 23.9306C17.0668 23.4796 16.9952 23.0286 16.9543 22.5775C16.9236 22.2802 16.8111 22.1265 16.494 22.1777C16.4326 22.188 16.3712 22.188 16.3099 22.1777C16.1053 22.147 15.8189 22.1572 15.8291 21.8702C15.8393 21.5627 16.1257 21.6242 16.3303 21.6242C18.0897 21.6242 19.849 21.6242 21.6186 21.6242C21.6697 21.6242 21.7106 21.6242 21.7515 21.6242C21.9254 21.6344 22.1096 21.6549 22.13 21.8702C22.1402 22.0855 21.9561 22.1162 21.7925 22.1675C21.5572 22.2495 21.2299 22.024 21.0867 22.3213C20.9844 22.5263 20.9946 22.7928 20.9639 23.0388C20.4832 26.6369 20.0127 30.2451 19.5319 33.8432C19.4705 34.3455 19.4092 34.8375 19.3376 35.3398C19.3069 35.5243 19.3478 35.6576 19.5319 35.7498C19.6342 35.8011 19.7774 35.8626 19.8183 35.9651C20.074 36.5084 20.5446 36.4674 21.0151 36.4571C22.1096 36.4469 23.204 36.4571 24.2985 36.4571C24.769 36.4571 24.7895 36.4264 24.5747 35.9959C23.5825 34.0072 22.5903 32.0288 21.5981 30.0401C21.1583 29.1483 21.2708 28.318 21.9459 27.5799C22.6415 26.8214 23.5211 26.4626 24.5133 26.3498C25.8226 26.1961 27.0603 26.3908 28.1445 27.2006C28.5537 27.5082 28.8401 27.9182 29.0344 28.3897C29.239 28.9023 29.2492 29.3841 28.973 29.9171C27.9399 31.916 26.958 33.9457 25.9453 35.9549C25.7817 36.2726 25.7101 36.4981 26.201 36.4776C26.3852 36.4674 26.6 36.5289 26.5897 36.7647C26.5795 37.0414 26.334 37.0209 26.1397 37.0209C25.2089 37.0209 24.2678 37.0107 23.3268 37.0107ZM12.6889 36.0676C12.7912 35.8933 12.8525 35.8113 12.9037 35.7191C13.8345 33.8534 14.7653 31.998 15.6961 30.1324C15.9212 29.6711 15.9007 29.6301 15.3688 29.6301C13.5788 29.6301 11.7888 29.6301 9.99873 29.6301C9.50775 29.6301 9.48729 29.6506 9.72256 30.1119C10.4181 31.5162 11.1137 32.9104 11.8194 34.3147C12.0956 34.8683 12.3718 35.4218 12.6889 36.0676ZM25.2702 35.9959C25.3214 35.9241 25.3623 35.8728 25.3828 35.8216C26.3443 33.8944 27.3058 31.957 28.2775 30.0299C28.4616 29.6711 28.3184 29.6198 28.0013 29.6198C26.2011 29.6301 24.3906 29.6198 22.5903 29.6198C22.0482 29.6198 22.0277 29.6608 22.2834 30.1631C23.1938 31.9878 24.1042 33.8022 25.0145 35.6268C25.0657 35.7498 25.1066 35.8934 25.2702 35.9959Z" fill="white"/>
</svg>
