<?xml version="1.0" encoding="utf-8"?>
<!-- Generator: Adobe Illustrator 27.3.1, SVG Export Plug-In . SVG Version: 6.00 Build 0)  -->
<svg version="1.1" id="Layer_1" xmlns="http://www.w3.org/2000/svg" xmlns:xlink="http://www.w3.org/1999/xlink" x="0px" y="0px"
	 viewBox="0 0 266 73" style="enable-background:new 0 0 266 73;" xml:space="preserve">
<style type="text/css">
	.st0{fill:#FFFFFF;}
</style>
<g>
	<g>
		<path class="st0" d="M6.6,45.1c0-1.7,0-3.3,0-5c0-0.5-0.2-0.9-0.6-1.1c-1.6-0.9-1.6-3,0-3.9c0.6-0.3,0.7-0.7,0.7-1.3
			c0-3.2,0-6.4,0-9.6c0-0.2,0-0.5,0-0.7c0-0.3,0-0.7,0.4-0.7c0.4,0,0.5,0.3,0.6,0.6c0,0.1,0,0.3,0,0.4c0,0.6,0.2,0.5,0.6,0.3
			c0.1,0,0.2-0.1,0.2-0.1c3.6-1.8,7.3-3.6,10.9-5.5c2-1,3.9-0.6,5.4,1.2c2.1,2.7,2.4,7.3,0.5,10.3c-0.8,1.4-2,2.2-3.7,2.5
			c-0.5,0.1-1,0-1.5-0.2c-3.9-2-7.8-3.9-11.7-5.9c-0.8-0.4-0.8-0.4-0.8,0.5c0,2.3,0,4.6,0,6.9c0,0.5,0.1,1,0.6,1.2
			c0.2,0.1,0.3,0.2,0.4,0.3c0.4,1.1,1.3,0.9,2.1,0.7c6.7-0.9,13.4-1.8,20.2-2.7c0.8-0.1,1.7-0.2,2.5-0.3c0.6-0.1,0.8-0.3,0.7-0.9
			c0-0.1,0-0.2,0-0.3c0.1-0.4,0-0.9,0.6-0.9c0.6,0,0.5,0.6,0.5,0.9c0,3.3,0,6.6,0,9.9c0,0.1,0,0.2,0,0.2c0,0.3-0.1,0.7-0.5,0.7
			c-0.4,0-0.5-0.3-0.6-0.6c-0.2-0.4,0.3-1-0.3-1.3c-0.4-0.2-0.9-0.2-1.3-0.2c-6.7-0.9-13.4-1.8-20.1-2.7c-0.9-0.1-1.8-0.2-2.8-0.4
			c-0.3-0.1-0.6,0-0.8,0.4c-0.1,0.2-0.2,0.5-0.4,0.5c-1,0.5-0.9,1.4-0.9,2.2c0,2,0,4.1,0,6.1c0,0.9,0.1,0.9,0.9,0.5
			c3.7-1.9,7.4-3.7,11.1-5.6c1.7-0.8,3.2-0.6,4.6,0.6c1.4,1.3,2.1,2.9,2.3,4.8c0.3,2.4-0.1,4.8-1.6,6.8c-0.6,0.8-1.3,1.3-2.2,1.7
			c-1,0.4-1.8,0.4-2.8-0.1C16,53.7,12.3,51.9,8.5,50c-0.6-0.3-1-0.4-1,0.5c0,0.3-0.1,0.7-0.5,0.7c-0.5,0-0.5-0.5-0.5-0.8
			C6.6,48.6,6.6,46.9,6.6,45.1z M8.4,25.3c0.3,0.2,0.5,0.3,0.6,0.4c3.5,1.7,6.9,3.5,10.4,5.2c0.9,0.4,0.9,0.4,0.9-0.6
			c0-3.3,0-6.7,0-10c0-0.9,0-1-0.9-0.5c-2.6,1.3-5.2,2.6-7.8,3.9C10.6,24.2,9.5,24.7,8.4,25.3z M8.5,48.8c0.1,0.1,0.2,0.2,0.3,0.2
			c3.6,1.8,7.2,3.6,10.8,5.4c0.7,0.3,0.8,0.1,0.8-0.5c0-3.4,0-6.7,0-10.1c0-1-0.1-1-1-0.6c-3.4,1.7-6.8,3.4-10.2,5.1
			C8.9,48.4,8.7,48.4,8.5,48.8z"/>
		<path class="st0" d="M32.1,3.5c1.7,0,3.3,0,5,0c0.5,0,0.9-0.2,1.1-0.6c0.9-1.6,3-1.6,3.9,0c0.3,0.6,0.7,0.7,1.3,0.7
			c3.2,0,6.4,0,9.6,0c0.2,0,0.5,0,0.7,0c0.3,0,0.7,0,0.7,0.4c0,0.4-0.3,0.5-0.6,0.6c-0.1,0-0.3,0-0.4,0c-0.6,0-0.5,0.2-0.3,0.6
			c0,0.1,0.1,0.2,0.1,0.2c1.8,3.6,3.6,7.3,5.5,11c1,2,0.6,4-1.2,5.4c-2.7,2.1-7.3,2.4-10.3,0.5c-1.4-0.8-2.2-2-2.5-3.7
			c-0.1-0.5,0-1,0.2-1.5c2-3.9,3.9-7.8,5.9-11.7C51,4.6,51,4.6,50.1,4.6c-2.3,0-4.6,0-6.9,0c-0.5,0-1,0.1-1.2,0.6
			c-0.1,0.2-0.2,0.3-0.3,0.4c-1.1,0.4-0.9,1.3-0.7,2.1c0.9,6.7,1.8,13.5,2.7,20.2c0.1,0.8,0.2,1.7,0.3,2.5c0.1,0.6,0.3,0.8,0.9,0.7
			c0.1,0,0.2,0,0.3,0c0.4,0.1,0.9,0,0.9,0.6c0,0.6-0.6,0.5-0.9,0.5c-3.3,0-6.6,0-9.8,0c-0.1,0-0.2,0-0.2,0c-0.3,0-0.7-0.1-0.7-0.5
			c0-0.4,0.3-0.5,0.6-0.6c0.4-0.2,1,0.3,1.3-0.3c0.2-0.4,0.2-0.9,0.2-1.3c0.9-6.7,1.8-13.4,2.7-20.1c0.1-0.9,0.2-1.9,0.4-2.8
			c0.1-0.3,0-0.6-0.4-0.8c-0.2-0.1-0.5-0.2-0.5-0.4c-0.5-1-1.4-0.9-2.2-0.9c-2,0-4.1,0-6.1,0c-0.9,0-0.9,0.1-0.5,0.9
			c1.8,3.7,3.7,7.4,5.5,11.1c0.8,1.7,0.6,3.2-0.6,4.6c-1.3,1.4-2.9,2.1-4.8,2.3c-2.4,0.3-4.7-0.1-6.8-1.6c-0.8-0.6-1.3-1.3-1.7-2.2
			c-0.4-1-0.4-1.9,0.1-2.8c1.9-3.7,3.8-7.5,5.6-11.2c0.3-0.6,0.4-1-0.5-1c-0.3,0-0.7-0.1-0.7-0.5c0-0.5,0.5-0.5,0.8-0.5
			C28.6,3.5,30.3,3.5,32.1,3.5z M51.9,5.3c-0.2,0.3-0.3,0.5-0.4,0.6c-1.7,3.5-3.5,6.9-5.2,10.4c-0.4,0.9-0.4,0.9,0.6,0.9
			c3.3,0,6.7,0,10,0c0.9,0,1,0,0.5-0.9c-1.3-2.6-2.6-5.2-3.9-7.8C53,7.5,52.5,6.5,51.9,5.3z M28.5,5.4c-0.1,0.1-0.2,0.2-0.2,0.3
			c-1.8,3.6-3.6,7.2-5.4,10.8c-0.3,0.7-0.1,0.8,0.5,0.8c3.4,0,6.7,0,10.1,0c1,0,1-0.1,0.6-1c-1.7-3.4-3.4-6.8-5.1-10.2
			C28.8,5.9,28.8,5.6,28.5,5.4z"/>
		<path class="st0" d="M73.7,29c0,1.7,0,3.3,0,5c0,0.5,0.2,0.9,0.6,1.1c1.6,0.9,1.6,3,0,3.9c-0.6,0.3-0.7,0.7-0.7,1.3
			c0,3.2,0,6.4,0,9.6c0,0.2,0,0.5,0,0.7c0,0.3,0,0.7-0.4,0.7c-0.4,0-0.5-0.3-0.6-0.6c0-0.1,0-0.3,0-0.4c0-0.6-0.2-0.5-0.6-0.3
			C72,50,71.9,50,71.8,50c-3.6,1.8-7.3,3.6-10.9,5.5c-2,1-3.9,0.6-5.4-1.2C53.4,51.7,53.1,47,55,44c0.8-1.4,2-2.2,3.7-2.5
			c0.5-0.1,1,0,1.5,0.2c3.9,2,7.8,3.9,11.7,5.9c0.8,0.4,0.8,0.4,0.8-0.5c0-2.3,0-4.6,0-6.9c0-0.5-0.1-1-0.6-1.2
			c-0.2-0.1-0.3-0.2-0.4-0.3c-0.4-1.1-1.3-0.9-2.1-0.7c-6.7,0.9-13.4,1.8-20.2,2.7c-0.8,0.1-1.7,0.2-2.5,0.3
			c-0.6,0.1-0.8,0.3-0.7,0.9c0,0.1,0,0.2,0,0.3c-0.1,0.4,0,0.9-0.6,0.9c-0.6,0-0.5-0.6-0.5-0.9c0-3.3,0-6.6,0-9.9c0-0.1,0-0.2,0-0.2
			c0-0.3,0.1-0.7,0.5-0.7c0.4,0,0.5,0.3,0.6,0.6c0.2,0.4-0.3,1,0.3,1.3c0.4,0.2,0.9,0.2,1.3,0.2c6.7,0.9,13.4,1.8,20.1,2.7
			c0.9,0.1,1.8,0.2,2.8,0.4c0.3,0.1,0.6,0,0.8-0.4c0.1-0.2,0.2-0.5,0.4-0.5c1-0.5,0.9-1.4,0.9-2.2c0-2,0-4.1,0-6.1
			c0-0.9-0.1-0.9-0.9-0.5c-3.7,1.9-7.4,3.7-11.1,5.6c-1.7,0.8-3.2,0.6-4.6-0.6c-1.4-1.3-2.1-2.9-2.3-4.8C53.6,24.3,54,22,55.5,20
			c0.6-0.8,1.3-1.3,2.2-1.7c1-0.4,1.8-0.4,2.8,0.1c3.7,1.9,7.5,3.8,11.2,5.7c0.6,0.3,1,0.4,1-0.5c0-0.3,0.1-0.7,0.5-0.7
			c0.5,0,0.5,0.5,0.5,0.8C73.7,25.5,73.7,27.2,73.7,29z M71.9,48.8c-0.3-0.2-0.5-0.3-0.6-0.4c-3.5-1.7-6.9-3.5-10.4-5.2
			C60,42.8,60,42.8,60,43.8c0,3.3,0,6.7,0,10c0,0.9,0,1,0.9,0.5c2.6-1.3,5.2-2.6,7.8-3.9C69.7,50,70.7,49.4,71.9,48.8z M71.8,25.3
			c-0.1-0.1-0.2-0.2-0.3-0.2c-3.6-1.8-7.2-3.6-10.8-5.4c-0.7-0.3-0.8-0.1-0.8,0.5c0,3.4,0,6.7,0,10.1c0,1,0.1,1,1,0.6
			c3.4-1.7,6.8-3.4,10.2-5.1C71.3,25.7,71.6,25.7,71.8,25.3z"/>
		<path class="st0" d="M48.2,70.6c-1.7,0-3.3,0-5,0c-0.5,0-0.9,0.2-1.1,0.6c-0.9,1.6-3,1.6-3.9,0c-0.3-0.6-0.7-0.7-1.3-0.7
			c-3.2,0-6.4,0-9.6,0c-0.2,0-0.5,0-0.7,0c-0.3,0-0.7,0-0.7-0.5c0-0.4,0.3-0.5,0.6-0.6c0.1,0,0.3,0,0.4,0c0.6,0,0.5-0.2,0.3-0.6
			c0-0.1-0.1-0.2-0.1-0.2c-1.8-3.6-3.6-7.3-5.5-11c-1-2-0.6-4,1.2-5.4c2.7-2.1,7.3-2.4,10.3-0.5c1.4,0.8,2.2,2,2.5,3.7
			c0.1,0.5,0,1-0.2,1.5c-2,3.9-3.9,7.8-5.9,11.7c-0.4,0.8-0.4,0.8,0.5,0.8c2.3,0,4.6,0,6.9,0c0.5,0,1-0.1,1.2-0.6
			c0.1-0.2,0.2-0.3,0.3-0.4c1.1-0.4,0.9-1.3,0.7-2.1c-0.9-6.7-1.8-13.5-2.7-20.2c-0.1-0.8-0.2-1.7-0.3-2.5c-0.1-0.6-0.3-0.8-0.9-0.7
			c-0.1,0-0.2,0-0.3,0c-0.4-0.1-0.9,0-0.9-0.6c0-0.6,0.6-0.5,0.9-0.5c3.3,0,6.6,0,9.8,0c0.1,0,0.2,0,0.2,0c0.3,0,0.7,0.1,0.7,0.5
			c0,0.4-0.3,0.5-0.6,0.6c-0.4,0.2-1-0.3-1.3,0.3c-0.2,0.4-0.2,0.9-0.2,1.3C42.9,51.3,42,58,41.1,64.7c-0.1,0.9-0.2,1.9-0.4,2.8
			c-0.1,0.3,0,0.6,0.4,0.8c0.2,0.1,0.5,0.2,0.5,0.4c0.5,1,1.4,0.9,2.2,0.9c2,0,4.1,0,6.1,0c0.9,0,0.9-0.1,0.5-0.9
			c-1.8-3.7-3.7-7.4-5.5-11.1c-0.8-1.7-0.6-3.2,0.6-4.6c1.3-1.4,2.9-2.1,4.8-2.3c2.4-0.3,4.7,0.1,6.8,1.6c0.8,0.6,1.3,1.3,1.7,2.2
			c0.4,1,0.4,1.9-0.1,2.8c-1.9,3.7-3.8,7.5-5.6,11.2c-0.3,0.6-0.4,1,0.5,1c0.3,0,0.7,0.1,0.7,0.5c0,0.5-0.5,0.5-0.8,0.5
			C51.7,70.6,49.9,70.6,48.2,70.6z M28.4,68.8c0.2-0.3,0.3-0.5,0.4-0.6c1.7-3.5,3.5-6.9,5.2-10.4c0.4-0.9,0.4-0.9-0.6-0.9
			c-3.3,0-6.7,0-10,0c-0.9,0-1,0-0.5,0.9c1.3,2.6,2.6,5.2,3.9,7.8C27.3,66.6,27.8,67.6,28.4,68.8z M51.8,68.7
			c0.1-0.1,0.2-0.2,0.2-0.3c1.8-3.6,3.6-7.2,5.4-10.8c0.3-0.7,0.1-0.8-0.5-0.8c-3.4,0-6.7,0-10.1,0c-1,0-1,0.1-0.6,1
			c1.7,3.4,3.4,6.8,5.1,10.2C51.4,68.2,51.5,68.5,51.8,68.7z"/>
		<path class="st0" d="M91.5,50.1V25.7h3v21.8h11.3v2.6H91.5z M110,50.1V31.8h2.8v18.3H110z M111.4,28.8c-0.5,0-1-0.2-1.4-0.6
			c-0.4-0.4-0.6-0.8-0.6-1.3c0-0.5,0.2-1,0.6-1.3c0.4-0.4,0.9-0.6,1.4-0.6c0.5,0,1,0.2,1.4,0.6c0.4,0.4,0.6,0.8,0.6,1.3
			c0,0.5-0.2,1-0.6,1.3C112.4,28.6,112,28.8,111.4,28.8z M132.9,31.8l-6.8,18.3h-2.9l-6.8-18.3h3l5,14.6h0.2l5-14.6H132.9z
			 M143.6,50.5c-1.8,0-3.3-0.4-4.6-1.2c-1.3-0.8-2.2-1.9-2.9-3.3c-0.7-1.4-1-3.1-1-4.9c0-1.9,0.3-3.5,1-5c0.7-1.4,1.7-2.6,2.9-3.4
			c1.2-0.8,2.7-1.2,4.3-1.2c1,0,1.9,0.2,2.8,0.5c0.9,0.3,1.8,0.8,2.5,1.5c0.8,0.7,1.4,1.6,1.8,2.8c0.5,1.2,0.7,2.6,0.7,4.3v1.2
			h-14.1v-2.4h11.2c0-1-0.2-2-0.6-2.8c-0.4-0.8-1-1.4-1.7-1.9c-0.7-0.5-1.6-0.7-2.6-0.7c-1.1,0-2.1,0.3-2.9,0.8
			c-0.8,0.5-1.4,1.3-1.9,2.1s-0.7,1.8-0.7,2.8v1.6c0,1.4,0.2,2.6,0.7,3.5c0.5,1,1.2,1.7,2,2.2c0.9,0.5,1.9,0.7,3,0.7
			c0.7,0,1.4-0.1,2-0.3c0.6-0.2,1.1-0.5,1.6-1c0.4-0.4,0.8-1,1-1.6l2.7,0.8c-0.3,0.9-0.8,1.7-1.4,2.4c-0.7,0.7-1.5,1.2-2.5,1.6
			C146,50.3,144.8,50.5,143.6,50.5z M155.8,50.1V25.7h14.7v2.6h-11.8v8.2h11v2.6h-11v8.3h12v2.6H155.8z M188,56.9v-9.7h-0.2
			c-0.2,0.3-0.5,0.8-0.9,1.3c-0.4,0.5-0.9,0.9-1.6,1.3c-0.7,0.4-1.6,0.6-2.8,0.6c-1.5,0-2.9-0.4-4-1.2c-1.2-0.8-2.1-1.9-2.7-3.3
			c-0.7-1.4-1-3.1-1-5c0-1.9,0.3-3.6,1-5s1.6-2.5,2.7-3.3c1.2-0.8,2.5-1.2,4.1-1.2c1.2,0,2.1,0.2,2.8,0.6c0.7,0.4,1.2,0.8,1.6,1.3
			c0.4,0.5,0.7,0.9,0.9,1.2h0.3v-2.9h2.7v25.1H188z M182.8,47.9c1.1,0,2.1-0.3,2.9-0.9c0.8-0.6,1.4-1.4,1.8-2.5
			c0.4-1.1,0.6-2.3,0.6-3.7c0-1.4-0.2-2.6-0.6-3.6c-0.4-1-1-1.8-1.8-2.4c-0.8-0.6-1.7-0.9-2.9-0.9c-1.2,0-2.2,0.3-3,0.9
			c-0.8,0.6-1.4,1.4-1.8,2.5c-0.4,1-0.6,2.2-0.6,3.5c0,1.3,0.2,2.5,0.6,3.5c0.4,1.1,1,1.9,1.8,2.5C180.6,47.6,181.6,47.9,182.8,47.9
			z M207.4,42.6V31.8h2.8v18.3h-2.8V47h-0.2c-0.4,0.9-1.1,1.7-2,2.4c-0.9,0.6-2,1-3.4,1c-1.1,0-2.2-0.2-3-0.7
			c-0.9-0.5-1.6-1.3-2.1-2.3c-0.5-1-0.8-2.3-0.8-3.9V31.8h2.8v11.4c0,1.3,0.4,2.4,1.1,3.2c0.8,0.8,1.7,1.2,2.9,1.2
			c0.7,0,1.4-0.2,2.1-0.5c0.7-0.4,1.3-0.9,1.8-1.6C207.2,44.7,207.4,43.8,207.4,42.6z M215.4,50.1V31.8h2.8v18.3H215.4z M216.8,28.8
			c-0.5,0-1-0.2-1.4-0.6c-0.4-0.4-0.6-0.8-0.6-1.3c0-0.5,0.2-1,0.6-1.3c0.4-0.4,0.9-0.6,1.4-0.6s1,0.2,1.4,0.6
			c0.4,0.4,0.6,0.8,0.6,1.3c0,0.5-0.2,1-0.6,1.3C217.8,28.6,217.4,28.8,216.8,28.8z M223.3,56.9V31.8h2.7v2.9h0.3
			c0.2-0.3,0.5-0.7,0.9-1.2c0.4-0.5,0.9-0.9,1.6-1.3c0.7-0.4,1.6-0.6,2.8-0.6c1.5,0,2.9,0.4,4.1,1.2c1.2,0.8,2.1,1.9,2.8,3.3
			c0.7,1.4,1,3.1,1,5c0,1.9-0.3,3.6-1,5c-0.7,1.4-1.6,2.5-2.7,3.3c-1.2,0.8-2.5,1.2-4,1.2c-1.2,0-2.1-0.2-2.8-0.6
			c-0.7-0.4-1.2-0.8-1.6-1.3c-0.4-0.5-0.7-0.9-0.9-1.3h-0.2v9.7H223.3z M226.1,40.9c0,1.4,0.2,2.6,0.6,3.7c0.4,1,1,1.9,1.8,2.5
			c0.8,0.6,1.7,0.9,2.9,0.9c1.2,0,2.2-0.3,2.9-0.9c0.8-0.6,1.4-1.5,1.8-2.5c0.4-1.1,0.6-2.2,0.6-3.5c0-1.3-0.2-2.4-0.6-3.5
			c-0.4-1-1-1.9-1.8-2.5c-0.8-0.6-1.8-0.9-3-0.9c-1.1,0-2.1,0.3-2.9,0.9c-0.8,0.6-1.4,1.4-1.8,2.4C226.3,38.4,226.1,39.6,226.1,40.9
			z M251.4,50.5c-1.8,0-3.3-0.4-4.6-1.2c-1.3-0.8-2.2-1.9-2.9-3.3c-0.7-1.4-1-3.1-1-4.9c0-1.9,0.3-3.5,1-5c0.7-1.4,1.6-2.6,2.9-3.4
			c1.2-0.8,2.7-1.2,4.3-1.2c1,0,1.9,0.2,2.8,0.5c0.9,0.3,1.8,0.8,2.5,1.5c0.8,0.7,1.4,1.6,1.8,2.8c0.5,1.2,0.7,2.6,0.7,4.3v1.2
			h-14.1v-2.4h11.2c0-1-0.2-2-0.6-2.8c-0.4-0.8-1-1.4-1.7-1.9c-0.7-0.5-1.6-0.7-2.6-0.7c-1.1,0-2.1,0.3-2.9,0.8
			c-0.8,0.5-1.4,1.3-1.9,2.1c-0.4,0.9-0.7,1.8-0.7,2.8v1.6c0,1.4,0.2,2.6,0.7,3.5c0.5,1,1.2,1.7,2,2.2c0.9,0.5,1.9,0.7,3,0.7
			c0.7,0,1.4-0.1,2-0.3c0.6-0.2,1.1-0.5,1.6-1c0.4-0.4,0.8-1,1-1.6l2.7,0.8c-0.3,0.9-0.8,1.7-1.4,2.4c-0.7,0.7-1.5,1.2-2.5,1.6
			C253.8,50.3,252.7,50.5,251.4,50.5z"/>
	</g>
</g>
</svg>
